<?xml version="1.0" standalone="no"?>
<!DOCTYPE svg PUBLIC "-//W3C//DTD SVG 1.1//EN" "http://www.w3.org/Graphics/SVG/1.1/DTD/svg11.dtd" >
<svg xmlns="http://www.w3.org/2000/svg">
<metadata>
Created by FontForge 20120731 at Thu Oct  8 16:32:36 2015
 By Ads
</metadata>
<defs>
<font id="iconfont" horiz-adv-x="1024" >
  <font-face 
    font-family="iconfont"
    font-weight="500"
    font-stretch="normal"
    units-per-em="1024"
    panose-1="2 0 6 3 0 0 0 0 0 0"
    ascent="812"
    descent="-212"
    x-height="792"
    bbox="0 -223.75 1042 812"
    underline-thickness="50"
    underline-position="-100"
    unicode-range="U+0078-E61B"
  />
<missing-glyph horiz-adv-x="374" 
d="M34 0v682h272v-682h-272zM68 34h204v614h-204v-614z" />
    <glyph glyph-name=".notdef" horiz-adv-x="374" 
d="M34 0v682h272v-682h-272zM68 34h204v614h-204v-614z" />
    <glyph glyph-name=".null" horiz-adv-x="0" 
 />
    <glyph glyph-name="nonmarkingreturn" horiz-adv-x="341" 
 />
    <glyph glyph-name="x" unicode="x" horiz-adv-x="1001" 
d="M281 543q-27 -1 -53 -1h-83q-18 0 -36.5 -6t-32.5 -18.5t-23 -32t-9 -45.5v-76h912v41q0 16 -0.5 30t-0.5 18q0 13 -5 29t-17 29.5t-31.5 22.5t-49.5 9h-133v-97h-438v97zM955 310v-52q0 -23 0.5 -52t0.5 -58t-10.5 -47.5t-26 -30t-33 -16t-31.5 -4.5q-14 -1 -29.5 -0.5
t-29.5 0.5h-32l-45 128h-439l-44 -128h-29h-34q-20 0 -45 1q-25 0 -41 9.5t-25.5 23t-13.5 29.5t-4 30v167h911zM163 247q-12 0 -21 -8.5t-9 -21.5t9 -21.5t21 -8.5q13 0 22 8.5t9 21.5t-9 21.5t-22 8.5zM316 123q-8 -26 -14 -48q-5 -19 -10.5 -37t-7.5 -25t-3 -15t1 -14.5
t9.5 -10.5t21.5 -4h37h67h81h80h64h36q23 0 34 12t2 38q-5 13 -9.5 30.5t-9.5 34.5q-5 19 -11 39h-368zM336 498v228q0 11 2.5 23t10 21.5t20.5 15.5t34 6h188q31 0 51.5 -14.5t20.5 -52.5v-227h-327z" />
    <glyph glyph-name="uniE600" unicode="&#xe600;" horiz-adv-x="1000" 
d="M293 376q-14 0 -26.5 -7t-20 -19.5t-7.5 -27.5q0 -22 16 -37.5t38 -15.5q15 0 27.5 7t19.5 19.5t7 26.5q0 23 -16 38.5t-38 15.5zM737.5 376q-22.5 0 -38 -15.5t-15.5 -38t15.5 -38t38.5 -15.5q10 0 20 4t17.5 11.5t11.5 17.5t4 20q0 23 -15.5 38.5t-38 15.5zM515 753
q-89 0 -170 -34.5t-139.5 -93t-93 -139.5t-34.5 -170q0 -51 11.5 -100.5t33 -92.5t51.5 -81t68 -68t81 -51.5t92 -33t100 -11.5q89 0 170 34.5t140 93.5t93.5 140t34.5 170t-34.5 170t-93.5 139.5t-140 93t-170 34.5zM515.5 -95q-111.5 0 -206 55t-149.5 149.5t-55 206
t55 206t149.5 149.5t206 55t206 -55t149.5 -149.5t55 -206t-55 -206t-149.5 -149.5t-206 -55zM522 376q-22 0 -38 -15.5t-16 -38t16 -38t38 -15.5q11 0 21 4t17 11.5t11.5 17.5t4.5 20q0 15 -7.5 27.5t-19.5 19.5t-27 7z" />
    <glyph glyph-name="uniE601" unicode="&#xe601;" 
d="M880 443q-10 3 -25 4.5t-41.5 3t-45.5 2t-62.5 1.5t-66.5 1q4 20 5.5 40t1.5 54q0 37 -13 73t-33 61.5t-45 41.5t-49 16q-35 0 -60 -25t-26 -60q0 -16 -2 -32t-6.5 -35.5t-13 -38.5t-20.5 -37t-30.5 -34.5t-41.5 -28.5q-4 -3 -15.5 -8.5t-13.5 -6.5l1 -1q-26 22 -57 22
h-85q-36 0 -61 -25t-25 -60v-455q0 -35 25 -60t61 -25h85q25 0 45 13.5t31 35.5l1 -1q1 0 3.5 -0.5t3.5 -0.5v-1h1q15 -3 42.5 -9.5t73.5 -17.5q86 -19 170 -19h155q36 0 61.5 13.5t40.5 40.5q7 15 12 31q8 24 1 50q31 21 47 73q14 44 0 78q14 13 23.5 32.5t14.5 46.5
q3 17 0 34.5t-11 32.5q23 26 24 62v6q1 3 1 4v3v7q0 19 -8.5 38t-27 35.5t-45.5 24.5zM250 -84q0 -12 -8.5 -20.5t-20.5 -8.5h-85q-6 0 -11.5 2.5t-9 6.5t-6 9t-2.5 11v455q0 12 8.5 20t20.5 8h85q6 0 11 -2t9 -6t6.5 -9t2.5 -11v-455zM903 327q-1 -41 -56 -41h-57
q-4 0 -7 -2t-5 -5.5t-2 -7.5q0 -5 4 -9.5t10 -4.5h55q20 0 31.5 -10t13.5 -21t0.5 -21.5t-4.5 -19t-9 -19t-18.5 -17t-29.5 -6.5h-67q-6 0 -10.5 -4t-4.5 -10t4.5 -10t10.5 -4h56q17 0 26.5 -6t12 -15.5t2 -18.5t-3.5 -18l-2 -4q-3 -11 -5 -16.5t-7.5 -13.5t-12.5 -12
t-19.5 -7t-29.5 -3h-46q-4 0 -7 -2t-5 -5t-2 -7q0 -6 4 -10t10 -4h45q20 0 26.5 -14t2.5 -26q-2 -7 -8 -21q-4 -8 -10.5 -13t-16.5 -8.5t-25 -3.5h-155q-76 0 -158 19q-34 7 -58.5 13t-36.5 9t-21 5t-10.5 2.5t-5.5 1.5q-2 0 -6 1.5t-11 8t-7 15.5v393q0 23 23 30l2 1
q3 0 3 1q28 11 51 26.5t40 33t30.5 38t22.5 41.5t15.5 43.5t9 43.5t2.5 42q0 7 3.5 13.5t10 11t15.5 4.5q4 0 9 -2t10.5 -5t11 -8t11 -11t11 -13.5t10 -16t8 -18t6.5 -19t4.5 -20.5t1.5 -22q0 -22 -0.5 -35.5t-2 -25.5t-5 -25.5t-7 -26.5t-11.5 -37q134 0 200.5 -1.5t78 -3
t28.5 -5.5q34 -10 34 -44v-5v-4q0 -1 -0.5 -3.5t-0.5 -5.5zM178 1q-17 0 -29.5 -12.5t-12.5 -29.5q0 -9 3.5 -17t9 -13.5t13.5 -9t16 -3.5q12 0 22 5.5t15.5 15.5t5.5 22q0 29 -27 39q-8 3 -16 3zM178 -56q-5 0 -9.5 4.5t-4.5 10.5q0 3 2 6.5t5.5 5.5t7 2t7 -2t5.5 -5.5
t2 -7t-2 -7t-5.5 -5.5t-7.5 -2z" />
    <glyph glyph-name="uniE602" unicode="&#xe602;" 
d="M249 266l479 -480q7 -6 16.5 -8.5t18.5 0t16 8.5q10 11 10 25.5t-10 25.5l-456 456l448 448q11 10 11 24.5t-10.5 24.5t-24.5 10t-25 -10l-465 -466q-1 0 -4 -6l-2 -1l-2 -1q-10 -10 -10 -25t10 -25z" />
    <glyph glyph-name="uniE603" unicode="&#xe603;" 
d="M512 780q-98 0 -186.5 -38t-153 -102.5t-102.5 -153t-38 -186.5t38 -186.5t102.5 -153t153 -102.5t186.5 -38t186.5 38t153 102.5t102.5 153t38 186.5t-38 186.5t-102.5 153t-153 102.5t-186.5 38zM800 113v64h-64v64h-64v64h-64v64h-64v64h-64v-64h-64v-64h-64v-64h-64
v-64h-64v-64h-64v64h64v64h64v64h64v64h64v64h64v64h64v-64h64v-64h64v-64h64v-64h64v-64h64v-64h-64z" />
    <glyph glyph-name="uniE604" unicode="&#xe604;" 
d="M512 811q-104 0 -198.5 -40.5t-163 -109t-109 -163t-40.5 -198.5t40.5 -198.5t109 -163t163 -109t198.5 -40.5t198.5 40.5t163 109t109 163t40.5 198.5q0 188 -122 331q-116 136 -291 171q-49 9 -98 9zM512 -140q-89 0 -170.5 35t-140.5 94t-94 140.5t-35 170.5t35 170.5
t94 140.5t140.5 94t170.5 35t170.5 -35t140.5 -94t94 -140.5t35 -170.5q0 -60 -16 -117t-44.5 -105t-69 -88.5t-88.5 -69t-105 -44.5t-117 -16zM367 348q19 0 32 20.5t13 49.5v13q-4 -5 -8 -7.5t-8 -2.5q-3 0 -6 1t-5.5 3.5t-4.5 5.5t-3.5 7t-2.5 8.5t-1 9.5q0 18 10 29
q-8 4 -16 4q-12 0 -22.5 -9.5t-16.5 -25.5t-6 -36q0 -14 3.5 -27t9.5 -22.5t14.5 -15t17.5 -5.5zM654.5 348q18.5 0 32 20.5t13.5 49.5q0 6 -1 13q-7 -10 -16 -10q-4 0 -7.5 1.5t-6 5t-4.5 8t-3.5 9.5t-1.5 11q0 9 3 16.5t7 12.5q-8 4 -16 4q-18 0 -31.5 -20.5t-13.5 -50
t13.5 -50t32 -20.5zM808 221q-16 9 -28 8t-19 -6l-7 -6q27 2 45 -8q-50 -73 -125.5 -114.5t-161.5 -41.5q-58 0 -112 19.5t-98.5 54.5t-77.5 83q18 9 43 7q0 1 -2 2.5t-7.5 5t-11 4.5t-14.5 -0.5t-18 -7.5q-11 -6 -16 -19t0 -27q3 23 26 35q43 -84 120 -134.5t168 -50.5
t167.5 50t120.5 134q6 -4 10.5 -8.5t7 -9t4 -8t1.5 -5.5l1 -3q4 14 -1 27t-15 19z" />
    <glyph glyph-name="uniE605" unicode="&#xe605;" 
d="M672 447h-96l38 39q20 19 0.5 38t-38.5 0l-64 -70l-70 70q-20 19 -39 0t0 -38l45 -39h-90q-27 0 -45.5 -19.5t-18.5 -44.5q0 -8 2 -15.5t5 -14t7 -12t10 -10t13 -7.5t15 -5v-211q0 -10 8 -18t17 -8h301q10 0 18 8t8 18v205q9 2 18.5 8t16.5 14t11.5 19t4.5 23
q-5 29 -27 49.5t-50 20.5zM358 364q-18 1 -19 13q0 6 5.5 12.5t13.5 6.5h135v-32h-135zM640 127h-250v186h103v-109q0 -16 17 -24l8 -2q10 0 18 8t8 18v109h96v-186zM672 364h-128v32h134q6 0 13 -5.5t7 -13.5q-14 -13 -26 -13zM512 812q-138 0 -256 -69t-187 -187t-69 -256
t69 -256t187 -187t256 -69t256 69t187 187t69 256t-69 256t-187 187t-256 69zM506 -174q-97 0 -185 37.5t-151 101t-100.5 151t-37.5 184.5q0 55 12.5 108.5t35.5 100t55.5 88t73.5 73.5t88 55.5t100 36t109 12.5q96 0 184 -37.5t151 -101t100.5 -151t37.5 -184.5
q0 -43 -7.5 -85t-22 -80.5t-35 -74t-46.5 -66t-57 -57t-66.5 -47t-73.5 -34.5t-80 -22t-85 -8zM506 -174z" />
    <glyph glyph-name="uniE606" unicode="&#xe606;" horiz-adv-x="1042" 
d="M521 812q-84 0 -163.5 -25.5t-143.5 -72t-112 -108.5t-74.5 -139t-26.5 -159q0 -103 41 -196.5t111 -161t166.5 -107.5t202 -40t202 40t166 107.5t111 161t41.5 196t-41.5 196t-111 161t-166 107.5t-202.5 40zM521.5 -165q-99.5 0 -190 37.5t-155.5 100.5t-103.5 151
t-38.5 184t38.5 183.5t103.5 151t155.5 100.5t189.5 37q80 0 154.5 -23.5t134.5 -67.5t105 -102t69.5 -130t24.5 -149q0 -96 -38.5 -184t-104 -151t-155.5 -100.5t-189.5 -37.5zM619 213q0 42 42 174l56 141v32l-57 -42q-29 64 -100 64q-57 0 -130.5 -46.5t-120.5 -122.5
q-6 -8 -10.5 -16.5t-8.5 -17t-7.5 -17.5t-6.5 -17.5t-5.5 -17.5t-4 -18t-2.5 -18l-2 -18q-1 -9 -1 -18q0 -28 1 -44t6.5 -36t16.5 -34q12 -15 28.5 -25t34 -14.5t34.5 -4.5q26 0 51 9.5t49 28.5q48 37 105 116q0 -78 20.5 -116t65.5 -38q36 0 75.5 25.5t130.5 109.5l-55 -42
q-149 -105 -191 -40q-14 22 -14 63zM568 253.5q-86 -120.5 -184 -120.5q-39 0 -65 24q-12 11 -19.5 36.5t-7.5 47.5q0 37 4 63t19 58.5t43 71.5q42 59 99 92.5t107 33.5q41 0 65.5 -22t24.5 -62q0 -102 -86 -222.5z" />
    <glyph glyph-name="uniE607" unicode="&#xe607;" 
d="M512 152zM512 152zM512 802q-102 0 -195 -39.5t-160.5 -107t-107 -160.5t-39.5 -195q0 -68 18 -133.5t50 -120.5t78.5 -101.5t101.5 -78.5t120.5 -50t133.5 -18q102 0 195 39.5t160.5 107t107 160.5t39.5 195q0 186 -121 327q-115 135 -289 167q-46 8 -92 8zM805 91h-586
v279l205 -142q37 -26 88 -26t88 26l205 142v-279zM805 451l-243 -168q-20 -14 -50 -14t-50 14l-243 168v58h586v-58z" />
    <glyph glyph-name="uniE608" unicode="&#xe608;" 
d="M529 756q-73 0 -141.5 -19.5t-123.5 -55t-96.5 -83t-64 -106.5t-22.5 -122q0 -74 22 -135.5t55.5 -102t83.5 -78.5t94.5 -62t101 -56.5t91.5 -58.5q39 33 95.5 67.5t102 58t94 59.5t81.5 74t54.5 98t21.5 136q0 78 -36 150t-96 123.5t-143 82t-174 30.5zM318 269
q-24 0 -45.5 12t-33.5 33t-12 46q0 38 27 65t64.5 27t64.5 -27t27 -65q0 -7 -1.5 -14.5t-3.5 -14t-5.5 -13t-7.5 -12t-9 -10.5t-10.5 -9.5t-12 -7.5t-13 -5.5t-14 -3.5t-15.5 -1zM545 269q-38 0 -64.5 26.5t-26.5 64.5t26.5 65t64.5 27t65 -27t27 -65q0 -10 -2.5 -20.5
t-7 -19.5t-11 -17t-14.5 -14t-17 -10.5t-19 -7t-21 -2.5zM762.5 269q-37.5 0 -64.5 26.5t-27 64.5t27 65t64.5 27t64.5 -27t27 -65t-27 -64.5t-64.5 -26.5z" />
    <glyph glyph-name="uniE609" unicode="&#xe609;" 
d="M831 273l-312 288l-312 -282l85 -1l-1 -231h169v147h106v-147h169v227zM511 -146q-91 0 -174 35q-80 34 -141.5 95.5t-95.5 141.5q-35 83 -35 174t35 174q34 80 95.5 142t141.5 96q83 35 174 35q45 0 89 -9t85 -26q80 -34 142 -96q31 -31 55 -66.5t41 -75.5
q35 -83 35 -174q0 -30 -4 -59.5t-12 -58t-19 -56.5q-34 -80 -96 -141.5t-142 -95.5q-41 -18 -85 -26.5t-89 -8.5zM511.5 716q-84.5 0 -161.5 -33t-133 -88.5t-89 -132.5t-33 -161.5t33 -161.5t89 -133t133 -89t161 -33q113 0 209 56t151.5 151.5t55.5 208.5q0 85 -33 162
t-88.5 132.5t-132.5 88.5t-161.5 33z" />
    <glyph glyph-name="uniE60A" unicode="&#xe60a;" 
d="M629 421l19 -4q29 -12 29 -49q-1 0 0 -5t-2 -13t-7 -15.5t-14 -13.5t-25 -6q-2 0 -5 0.5t-11 3t-14 7.5t-11 16t-5 26v6q0 3 2.5 11.5t7 15t14 13t22.5 7.5zM723 503q1 0 3 -1l6 -2q4 -1 7.5 -4t6 -8.5t2.5 -12.5v-374q0 -3 -1 -7.5t-7.5 -12t-16.5 -8.5v430zM276 101
q0 -3 1 -8t7 -12.5t16 -7.5h423v80h-46l-94 108l-71 -81l-96 135l-95 -161l-21 -1v322h-24v-374v0zM723 503h-423q-3 0 -7 -1t-10.5 -7.5t-6.5 -19.5h447v28zM512 -176q-94 0 -180 37t-148 99t-99 148t-37 180t37 180t99 148t148 99t180 37q54 0 106 -12.5t98 -35t86 -54.5
t72 -72t54.5 -86t35 -98t12.5 -106q0 -94 -37 -180t-99 -148t-148 -99t-180 -37zM512 708q-85 0 -163 -33.5t-134 -89.5t-89.5 -134t-33.5 -163q0 -114 56.5 -210.5t153 -153t210.5 -56.5t210.5 56.5t153 153t56.5 210.5t-56.5 210.5t-153 153t-210.5 56.5z" />
    <glyph glyph-name="uniE60B" unicode="&#xe60b;" 
d="M480 684q172 0 294 -122t122 -294t-122 -294t-294 -122t-294 122t-122 294t122 294t294 122zM480 748q-98 0 -186.5 -38t-153 -102.5t-102.5 -153t-38 -186.5t38 -186.5t102.5 -153t153 -102.5t186.5 -38t186.5 38t153 102.5t102.5 153t38 186.5t-38 186.5t-102.5 153
t-153 102.5t-186.5 38zM608 428h-256q-96 0 -96 -96v-128q0 -96 96 -96h1v-63q0 -19 17 -28q7 -4 15 -4q3 0 6 0.5t6 2t6 2.5l134 90h71q96 0 96 96v128q0 44 -25 70t-71 26zM480 300q13 0 22.5 -9.5t9.5 -22.5t-9.5 -22.5t-22.5 -9.5t-22.5 9.5t-9.5 22.5t9.5 22.5
t22.5 9.5zM320 268q0 13 9.5 22.5t22.5 9.5t22.5 -9.5t9.5 -22.5t-9.5 -22.5t-22.5 -9.5t-22.5 9.5t-9.5 22.5zM608 236q-13 0 -22.5 9.5t-9.5 22.5t9.5 22.5t22.5 9.5t22.5 -9.5t9.5 -22.5t-9.5 -22.5t-22.5 -9.5z" />
    <glyph glyph-name="uniE60C" unicode="&#xe60c;" 
d="M525 749q-81 0 -155 -32t-127 -85t-84.5 -127t-31.5 -155q0 -108 53 -200t145 -145.5t200 -53.5t200 53.5t145.5 145.5t53.5 200t-53.5 200t-145.5 145.5t-200 53.5zM525 -20q-100 0 -185.5 49.5t-135 134.5t-49.5 186t49.5 186t135 134.5t185.5 49.5q50 0 98 -13t89 -37
t75 -58.5t58 -75t37 -88.5t13 -98q0 -75 -29 -143.5t-78.5 -118.5t-118.5 -79t-144 -29zM725 548l-1 1q-24 24 -55.5 32t-62.5 0t-55 -31l-260 -260l2 -1q-3 -3 -3 -8v-156q0 -10 10 -10h156q2 0 4.5 1t3.5 2h1l260 259q35 35 35 85.5t-35 85.5zM333 159q-3 3 -5.5 4.5t-6 2
t-9.5 -0.5v96l56 -2l1 -53l-1 -12h1v-1l12 1l53 -2l2 -55h-97q1 8 0 13t-6 9zM614 392l-179 -178l-44 2l-2 46l177 177zM464 149v-1l-5 -5l-3 58l1 3l172 172l32 -31l-196 -196h-1zM535 502l15 15l142 -141l-15 -16zM322 290l1 1l196 195l31 -31l-173 -173h-1l-60 2z
M709 392h-1l-142 141l1 1q29 29 70.5 29t70.5 -29l1 -1q29 -29 29 -70.5t-29 -70.5z" />
    <glyph glyph-name="uniE60D" unicode="&#xe60d;" 
d="M512 688q79 0 151 -30q70 -30 123.5 -83.5t83.5 -123.5q30 -72 30 -151t-30 -151q-30 -70 -83.5 -123.5t-123.5 -83.5q-72 -30 -151 -30t-151 30q-70 30 -123.5 83.5t-83.5 123.5q-30 72 -30 151t30 151q30 70 84 123q26 27 57 48t66 36q72 30 151 30zM512 748
q-122 0 -225 -60t-163 -163t-60 -225t60 -225t163 -163t225 -60t225 60t163 163t60 225t-60 225t-163 163t-225 60zM774 493h19v1q0 8 -5.5 13t-13.5 5h-524q-8 0 -13.5 -5t-5.5 -13v-1h57q6 0 10 -3.5t4 -9.5q0 -3 -2 -6t-5 -4.5t-7 -1.5h-57v-339h38q5 0 9 -3.5t4 -9
t-4 -9.5t-9 -4h-38q1 -6 6 -11t12 -5h526q7 0 12 5t6 11h-38q-5 0 -9 4t-4 9.5t4 9t9 3.5h38v338h-18q-4 0 -7 2t-4.5 5t-1.5 6q0 2 0.5 4t1.5 4t2.5 3t3.5 1.5t4 0.5zM557 493h66q6 0 9.5 -3.5t3.5 -9.5q0 -3 -1.5 -6t-4.5 -4.5t-7 -1.5h-66q-6 0 -9.5 3.5t-3.5 8.5
q-1 6 3 9.5t10 3.5zM445 493h67q5 0 9 -3.5t4 -9.5q0 -3 -2 -6t-5 -4.5t-6 -1.5h-67q-5 0 -9 3.5t-4 8.5q0 13 13 13zM334 493h66q6 0 9.5 -3.5t3.5 -9.5q0 -3 -1.5 -6t-4.5 -4.5t-7 -1.5h-66q-6 0 -10 3.5t-4 8.5q0 4 2 7t5 4.5t7 1.5zM367 436q27 0 46 -18.5t19 -45.5
q0 -17 -8.5 -31.5t-23.5 -23.5t-33 -9q-8 0 -15.5 2t-13.5 5t-12 7.5t-10.5 10t-7.5 12t-4.5 13.5t-1.5 14q0 27 19 45.5t46 18.5zM381 103h-67q-6 0 -9.5 4t-3.5 9t4 9t9 4h66q6 0 10 -4t4 -9t-4 -9t-9 -4zM492 103h-66q-6 0 -9.5 4t-3.5 9t3.5 9t9.5 4h66q6 0 9.5 -4
t3.5 -9q0 -4 -1.5 -6.5t-4.5 -4.5t-7 -2zM604 103h-67q-5 0 -9 4t-4 9t4 9t9 4h67q5 0 9 -4t4 -9t-4 -9t-9 -4zM712 103h-67q-5 0 -9 4t-4 9q0 3 2 6t5 5t6 2h67q5 0 9 -4t4 -9q0 -4 -1.5 -6.5t-5 -4.5t-6.5 -2zM542 161h-79h-90l85 143l45 -76l93 158l133 -225h-187z
M732 467h-67q-5 0 -9 4t-4 9t4 9t9 4h67q5 0 9 -4t4 -9t-4 -9t-9 -4z" />
    <glyph glyph-name="uniE60E" unicode="&#xe60e;" 
d="M512 -150h-4q-89 1 -170 35t-144 98q-62 63 -95.5 147t-32.5 173q1 91 36.5 173.5t95.5 142.5t142 95t172 35h4q123 -7 225 -70t160 -164.5t57 -218.5q-1 -91 -36.5 -173.5t-95.5 -142t-142 -95t-172 -35.5zM515 722h-3q-113 0 -209 -56t-152.5 -152.5t-57.5 -210.5
q-1 -84 30.5 -163t89.5 -138q20 -20 41.5 -37t45 -30.5t49 -24.5t51.5 -18t53.5 -11t55.5 -4h3q113 0 209 56t152.5 152.5t57.5 210.5q0 33 -5 66t-15 63.5t-24.5 59t-33 54.5t-41.5 49t-48.5 42.5t-54.5 35.5t-60 28t-65 19t-69 9zM511.5 238q-47.5 0 -87.5 23.5
t-63.5 64.5t-23.5 88q0 73 51 125t124 52q47 0 87 -24t63.5 -64.5t23.5 -88t-23.5 -88.5t-63.5 -64.5t-87.5 -23.5zM512 564q-30 0 -57.5 -12t-47 -32t-31.5 -47.5t-12 -58.5q0 -61 43.5 -105t104.5 -44t104 44t43 105.5t-43 105.5t-104 44zM799.5 -28q-5.5 0 -9.5 3.5
t-4 9.5q0 91 -47 163.5t-122 96.5q-13 4 -8.5 17t17.5 9q82 -27 134.5 -106.5t52.5 -179.5q0 -6 -4 -9.5t-9.5 -3.5zM224.5 -28q-5.5 0 -9.5 3.5t-4 9.5q0 99 51.5 178.5t133.5 106.5q13 4 17.5 -8.5t-8.5 -17.5q-74 -24 -120.5 -96.5t-46.5 -162.5q0 -6 -4 -9.5t-9.5 -3.5z
" />
    <glyph glyph-name="uniE60F" unicode="&#xe60f;" 
d="M975 317q0 91 -35.5 174t-95.5 143t-143 95.5t-174 35.5t-174 -35.5t-143 -95.5t-95 -143t-35 -174t35 -174t95 -143t143 -95.5t174 -35.5q149 0 270 92q1 2 2.5 4t2 4t0.5 5q0 8 -6 14t-14 6q-9 0 -14 -7h-1q-107 -79 -239 -79q-110 0 -203.5 54.5t-148 148t-54.5 203.5
t54.5 203.5t148 147.5t203.5 54t203.5 -54t147.5 -147.5t54 -203.5q0 -51 -11.5 -99t-34.5 -90v-1l-1 -5q0 -9 6 -14.5t14 -5.5q13 0 18 13q51 97 51 205zM532 30q-65 0 -120 22.5t-88 62.5q-56 68 -38 167q12 59 63 171q6 13 21 13q15 -1 20 -15q1 -1 2.5 -6t4.5 -14.5
t6 -19.5q74 105 63 180q-2 14 9 22q12 8 24 0q3 -1 7 -3.5t14.5 -11t21 -18t24.5 -25.5t26 -33.5t25.5 -42t23.5 -51.5q13 33 9 54q-1 7 2.5 13.5t9.5 10.5q15 7 26 -4q13 -13 30 -38t35.5 -67.5t27.5 -87t-1.5 -98t-45.5 -98.5q-31 -39 -84.5 -61t-117.5 -22zM365 376
q-12 -29 -21.5 -56t-13.5 -47q-14 -78 29 -129q17 -22 44 -37t60 -23.5t69 -8.5q53 0 98 17.5t69 47.5q16 21 25.5 44t13 45t2 45.5t-6.5 43.5t-12.5 41t-15.5 37t-17 31q-14 -46 -39 -68q-9 -8 -21 -4.5t-16 15.5q-16 61 -43.5 105t-57.5 72q-11 -90 -104 -203
q-9 -12 -24 -7.5t-15 19.5q-1 9 -3 20zM975 317q0 91 -35.5 174t-95.5 143t-143 95.5t-174 35.5t-174 -35.5t-143 -95.5t-95 -143t-35 -174t35 -174t95 -143t143 -95.5t174 -35.5q149 0 270 92q1 2 2.5 4t2 4t0.5 5q0 8 -6 14t-14 6q-9 0 -14 -7h-1q-107 -79 -239 -79
q-110 0 -203.5 54.5t-148 148t-54.5 203.5t54.5 203.5t148 147.5t203.5 54t203.5 -54t147.5 -147.5t54 -203.5q0 -51 -11.5 -99t-34.5 -90v-1l-1 -5q0 -9 6 -14.5t14 -5.5q13 0 18 13q51 97 51 205zM532 30q-65 0 -120 22.5t-88 62.5q-56 68 -38 167q12 59 63 171
q6 13 21 13q15 -1 20 -15q1 -1 2.5 -6t4.5 -14.5t6 -19.5q74 105 63 180q-2 14 9 22q12 8 24 0q3 -1 7 -3.5t14.5 -11t21 -18t24.5 -25.5t26 -33.5t25.5 -42t23.5 -51.5q13 33 9 54q-1 7 2.5 13.5t9.5 10.5q15 7 26 -4q13 -13 30 -38t35.5 -67.5t27.5 -87t-1.5 -98
t-45.5 -98.5q-31 -39 -84.5 -61t-117.5 -22zM365 376q-12 -29 -21.5 -56t-13.5 -47q-14 -78 29 -129q17 -22 44 -37t60 -23.5t69 -8.5q53 0 98 17.5t69 47.5q16 21 25.5 44t13 45t2 45.5t-6.5 43.5t-12.5 41t-15.5 37t-17 31q-14 -46 -39 -68q-9 -8 -21 -4.5t-16 15.5
q-16 61 -43.5 105t-57.5 72q-11 -90 -104 -203q-9 -12 -24 -7.5t-15 19.5q-1 9 -3 20z" />
    <glyph glyph-name="uniE610" unicode="&#xe610;" 
d="M512 -212q-139 0 -257 68.5t-186.5 186.5t-68.5 257q0 161 91.5 291.5t237.5 186.5v-79q-136 -63 -206 -196q-50 -96 -50 -203q0 -89 35 -170.5t93.5 -140t140 -93.5t170.5 -35q72 0 138.5 22t120.5 63t95 95t63 120.5t22 138.5q0 65 -19 127t-52.5 113t-81 92t-103.5 67
v79q146 -56 237.5 -186.5t91.5 -291.5q0 -139 -68.5 -257t-186.5 -186.5t-257 -68.5zM475 812h74v-366h-74v366z" />
    <glyph glyph-name="uniE611" unicode="&#xe611;" 
d="M212 180q41 47 91 83t96.5 55t93 31t85.5 15t68.5 3t46.5 -2l17 -2v-185l312 281l-312 280v-186q-96 1 -175 -20t-129 -52.5t-88.5 -73t-57.5 -79t-31 -74t-14.5 -53.5t-2.5 -21zM106 615h333v104h-437v-104h76l-76 -1v-624h104v625zM834 -10h-832v-104h832h105v292h-105
v-188zM834 -10z" />
    <glyph glyph-name="uniE612" unicode="&#xe612;" 
d="M512 659q-78 0 -149 -24t-122.5 -65.5t-82 -99t-30.5 -121.5q0 -34 9 -67.5t25 -63.5t38.5 -57.5t51 -50.5t61.5 -40l44 -114q15 -27 54 -5l116 59l22 12q145 13 245.5 108.5t100.5 218.5q0 64 -30.5 121.5t-82 99t-122 65.5t-148.5 24zM538 53l-130 -68q-15 -9 -18.5 -8
t-10.5 16l-36 99q-54 27 -95 67t-64.5 89.5t-23.5 100.5q0 56 28.5 107.5t76.5 89t112.5 60t134 22.5t134.5 -22.5t112.5 -60t76.5 -89t29 -107.5q-1 -106 -92 -193q-96 -92 -230 -103h-4zM507 348zM471 348q0 15 10.5 25.5t25.5 10.5q9 0 17.5 -5t13 -13.5t4.5 -18
t-4.5 -18t-13 -13t-17.5 -4.5q-15 0 -25.5 10.5t-10.5 25.5zM670 348zM634 348q0 9 5 17.5t13.5 13.5t17.5 5q15 0 25.5 -10.5t10.5 -25.5t-10.5 -25.5t-25.5 -10.5t-25.5 10.5t-10.5 25.5zM353 348zM317 348q0 15 10.5 25.5t25.5 10.5t25.5 -10.5t10.5 -25.5t-10.5 -25.5
t-25.5 -10.5t-25.5 10.5t-10.5 25.5z" />
    <glyph glyph-name="uniE613" unicode="&#xe613;" 
d="M518 -175q63 0 123 16.5t110.5 46.5t93 72.5t72.5 93.5t46.5 110.5t16.5 122.5q0 75 -23 145.5t-66 127.5t-100 99.5t-127 66t-146 23.5q-93 0 -178.5 -36.5t-147.5 -98.5t-98.5 -147.5t-36.5 -179.5t36.5 -179.5t98.5 -147.5t147.5 -98.5t178.5 -36.5zM518 710
q86 0 164.5 -33.5t135.5 -90t90.5 -135t33.5 -164.5q0 -115 -57 -212.5t-154.5 -154.5t-212 -57t-212.5 57t-154.5 154.5t-56.5 212.5q0 69 21.5 133.5t60.5 116.5t91 91.5t117 60.5t133 21zM521.5 107q85.5 0 155 49.5t100.5 129.5q-31 80 -100.5 129.5t-155.5 49.5
q-42 0 -82.5 -13t-73.5 -36.5t-58.5 -57t-41.5 -72.5q32 -80 101.5 -129.5t155 -49.5zM521.5 430q47.5 0 90.5 -18.5t75.5 -50.5t52.5 -75q-30 -64 -89 -103.5t-130 -39.5t-129.5 39.5t-88.5 103.5q20 43 52.5 75t75.5 50.5t90.5 18.5zM521 191q38 0 65 28t27 67.5t-27 67.5
t-65 28q-12 0 -24 -3.5t-22 -9.5t-18.5 -15t-14.5 -19.5t-9.5 -23t-3.5 -25.5q0 -26 12.5 -48t33.5 -34.5t46 -12.5zM521 346q16 0 29 -8t21 -22t8 -30q0 -6 -1 -12t-3.5 -11t-5.5 -10t-7 -9t-8.5 -7.5t-9.5 -5.5t-11 -3t-12 -1q-24 0 -40.5 17t-16.5 42t16.5 42.5
t40.5 17.5z" />
    <glyph glyph-name="uniE614" unicode="&#xe614;" 
d="M1024 343h-469v469h-86v-469h-469v-86h469v-469h86v469h469v86z" />
    <glyph glyph-name="uniE615" unicode="&#xe615;" 
d="M880 169q-42 -40 -97 -41h-94q26 -53 26 -103q0 -63 -19 -100q-10 -18 -23.5 -32t-31.5 -22q-36 -18 -81 -18q-9 0 -17.5 2.5t-16 7t-14.5 10.5q-24 23 -34 58t-16 68t-19 46q-13 14 -27.5 31.5t-30.5 37.5q-54 70 -73 83h-147q-29 0 -49 20t-20 49v343q0 29 20 49
q7 7 14.5 11.5t16 6.5t18.5 2h154q12 0 74 22q67 23 117 35q25 6 50.5 9t50.5 3h50h20q38 0 68.5 -11t53.5 -32q46 -44 45 -118q7 -9 12 -17.5t9 -18t6.5 -19t3.5 -20t1 -21.5q0 -12 -1 -23q20 -36 20 -77q0 -19 -5 -37q5 -7 8.5 -14t6.5 -14t5 -14t3.5 -14.5t2.5 -15.5
t1 -16q0 -55 -41 -96zM199 609q-5 0 -9 -1t-8 -3t-7 -6q-10 -10 -10 -24q0 -7 2.5 -13t7.5 -11q1 -2 2.5 -3t3.5 -2t3.5 -2t3.5 -1.5t3.5 -1t3.5 -0.5h4q14 0 24 10q5 5 7.5 11t2.5 13t-2.5 13t-7.5 11q-10 10 -24 10zM840 309q-12 24 -28 25q8 10 13 26q2 5 3 10.5t2 10
t1 9.5q0 37 -29 64q10 17 10 37t-9.5 39.5t-25.5 27.5q3 16 3 30q0 90 -104 90h-65q-35 0 -81 -10t-102 -29q-3 -1 -16 -6q-15 -5 -19 -7q-6 -2 -19 -6q-12 -4 -20 -6q-8 -1 -18 -3t-17 -2h-17v-343h17q9 0 19.5 -5t21.5 -15q12 -10 21 -19q4 -4 9.5 -10t11.5 -13
q12 -14 19 -23q3 -4 7 -9.5t10 -12.5q10 -13 12 -16q10 -12 17.5 -21.5t13.5 -16.5t10 -11q22 -23 32 -59q10 -35 17 -67q6 -32 20 -46q51 0 68.5 25.5t17.5 77.5q0 32 -26 86q-4 9 -7.5 17.5t-6.5 16.5t-5 15t-3.5 13.5t-2.5 12.5t-1 11h189q9 0 17.5 2.5t16 7t14.5 11.5
q21 20 21 48q0 19 -12 43z" />
    <glyph glyph-name="uniE616" unicode="&#xe616;" 
d="M512 -144q-115 0 -213 56.5t-154.5 154.5t-56.5 213q0 86 33 164t89.5 135t134.5 91t164 35q3 1 13 7q12 7 19 11t20 9t25 7q8 2 15 -0.5t12 -8.5t7 -14q2 -12 -5 -22t-19 -12q-14 -2 -45 -20q-9 -6 -14 -8.5t-12 -5t-13 -2.5q-99 0 -183.5 -49t-133.5 -133.5t-49 -183.5
t49 -183.5t133.5 -133.5t183.5 -49t183.5 49t133.5 133.5t49 183.5q0 144 -98 249q-15 17 -51 134q-22 -23 -40 -39t-30.5 -24t-22 -12.5t-17 -4t-10.5 1.5t-8 4q-11 6 -14 17.5t2 21.5q2 4 5.5 7.5t7.5 5t8 2.5t9 0q12 6 41.5 34.5t58.5 61.5q4 4 8.5 6.5t9.5 3.5t10 0
q17 -4 22 -20q43 -142 56 -162q35 -38 60 -84.5t38 -97.5t13 -105q0 -58 -15 -112.5t-42.5 -101.5t-66.5 -86t-85.5 -66.5t-101.5 -42.5t-113 -15zM523 38q-83 0 -139.5 43.5t-66.5 114.5h-26q-12 0 -20.5 8.5t-8.5 20.5q0 8 4 14.5t10.5 10.5t14.5 4h53q12 0 20.5 -8.5
t8.5 -20.5q0 -63 44 -96t106 -33q14 0 28 2t27 5.5t25.5 9.5t23 14t19 18t15 22t9.5 27t3 31q0 12 8.5 20.5t20.5 8.5h52q12 0 20.5 -8.5t8.5 -20.5q0 -6 -2.5 -11.5t-6.5 -9.5t-9 -6t-11 -2h-25q-13 -91 -97 -134q-49 -24 -109 -24zM419 377.5q0 -20.5 -15 -35t-35.5 -14.5
t-35 14.5t-14.5 35t14.5 35t35 14.5t35.5 -14.5t15 -35zM722 378q0 -8 -2.5 -16t-7 -14t-11 -10.5t-14 -7t-15.5 -2.5q-21 0 -35.5 14.5t-14.5 35t14.5 35t35.5 14.5q14 0 25.5 -6.5t18 -18t6.5 -24.5z" />
    <glyph glyph-name="uniE618" unicode="&#xe618;" 
d="M917 479q-17 39 -40.5 74.5t-53.5 65.5q-61 61 -140 94q-82 35 -171 35t-171 -35q-39 -17 -74 -40.5t-66 -53.5q-15 -15 -28.5 -31.5t-25 -34t-21.5 -36t-19 -38.5q-34 -81 -34 -171q0 -126 66 -233q5 -7 12 -10.5t15.5 -3.5t15.5 5q11 6 13.5 18.5t-3.5 23.5
q-58 91 -58 200q0 103 50.5 190t138 137.5t189.5 50.5t189.5 -50.5t138 -137.5t50.5 -190q0 -149 -102 -258q-101 -107 -247 -119q-15 -1 -29 -1q-101 0 -189 51q-11 6 -23 2.5t-18.5 -14.5t-3 -23t14.5 -18q49 -29 105 -44t114 -15q44 0 87 8.5t84 25.5q39 17 74 40.5
t66 54.5q60 60 94 139q34 82 34 171q0 22 -2 44t-6.5 43.5t-11 42.5t-14.5 41zM512 215q13 0 22 9t9 22v311q0 6 -2.5 12t-6.5 10t-10 6.5t-12 2.5q-3 0 -6 -1l-6 -2q-3 -1 -5.5 -2.5t-4.5 -3.5t-3.5 -4.5t-2.5 -5.5l-2 -6q-1 -3 -1 -6v-311q0 -13 9 -22t22 -9zM481 95
q0 -8 4.5 -15t11.5 -11.5t15 -4.5q13 0 22 9t9 22v31q0 6 -2.5 12t-6.5 10t-10 6.5t-12 2.5t-12 -2.5t-10 -6.5t-6.5 -10t-2.5 -12v-31z" />
    <glyph glyph-name="uniE619" unicode="&#xe619;" 
d="M512 806q-103 0 -196.5 -40t-161.5 -108t-108 -161.5t-40 -196.5q0 -82 25.5 -159.5t72.5 -139.5t109 -109t139.5 -72.5t159.5 -25.5q103 0 196.5 40t161.5 108t108 161.5t40 196.5q0 187 -121 328q-116 136 -290 169q-47 9 -95 9zM515 -162q-94 0 -180.5 37t-148.5 99
t-99 148.5t-37 181t37 180.5t99 148t148.5 99t180.5 37q76 0 147 -23.5t128 -66.5t100 -100t66.5 -128t23.5 -147q0 -63 -16.5 -123.5t-46.5 -111t-73 -93.5t-94 -73t-111.5 -47t-123.5 -17zM454 269h-196q-14 0 -23.5 -10t-9.5 -23v-197q0 -9 4.5 -16.5t12 -12t16.5 -4.5
h196q14 0 23.5 9.5t9.5 23.5v197q0 3 -1 7t-2.5 7t-3.5 6t-5 5.5t-6.5 4t-7 2.5t-7.5 1zM464 39q0 -10 -10 -10h-196q-10 0 -10 10v197q0 9 10 9h196q9 -1 10 -9v-197zM454 580h-196q-14 0 -23.5 -9.5t-9.5 -23.5v-197q0 -13 9.5 -23t23.5 -10h196q6 0 11 2t9 5t7 7t4.5 9
t1.5 10v197q0 4 -1 8.5t-3 8t-5.5 6.5t-7 5.5t-7.5 3.5t-9 1zM464 350q0 -9 -10 -9h-196q-10 0 -10 9v197q0 10 10 10h196q10 0 10 -10v-197zM766 580h-196q-14 0 -23.5 -9.5t-9.5 -23.5v-197q0 -13 9.5 -23t23.5 -10h196q14 0 23.5 10t9.5 23v197q0 7 -2.5 13t-7 10.5
t-10.5 7t-13 2.5zM776 350q0 -9 -10 -9h-196q-10 0 -10 9v197q0 10 10 10h196q10 0 10 -10v-197zM766 269h-196q-9 0 -16.5 -4.5t-12 -12.5t-4.5 -16v-197q0 -7 2.5 -13t7 -10.5t10.5 -7t13 -2.5h196q14 0 23.5 9.5t9.5 23.5v197q0 6 -2.5 12t-7 10.5t-10.5 7.5t-13 3z" />
    <glyph glyph-name="uniE61A" unicode="&#xe61a;" 
d="M491 785v-16v8v8zM491 785v-16v8v8zM777 336q12 0 20.5 8.5t8.5 20.5t-8.5 21t-20.5 9h-2h-213l5 11q5 10 12 24.5t14.5 29t12.5 24.5l5 11l40 81l1 1q5 11 1 22.5t-15 17.5q-3 1 -7 2t-7.5 0.5t-7.5 -1.5t-7 -3t-5.5 -5t-4.5 -7l-41 -84l-47 -94l-46 94l-41 84
q-6 11 -17.5 15t-22.5 -1q-7 -4 -11 -10.5t-4.5 -14t2.5 -15.5l1 -1l40 -81q3 -8 49 -100h-103h-52h-59q-5 0 -9.5 -1.5t-8 -4.5t-6.5 -6.5t-4.5 -8t-1.5 -9.5q0 -8 4 -14.5t11 -10.5t15 -4h110h123v-108h-122h-111q-12 0 -21 -8.5t-9 -21t8.5 -21t21.5 -8.5h110h123v-75
v-112q0 -8 3.5 -15t10.5 -11t15 -4q6 0 11.5 2.5t9 6.5t6 9.5t2.5 11.5v110v77h239q29 0 29 30q0 8 -4 14.5t-10.5 10.5t-14.5 4h-2h-237v108h239zM1023 286q1 7 1 13q0 84 -26 162t-73.5 141t-110 110.5t-141 73.5t-161.5 26h-8q-3 0 -7 -1q-8 0 -22 -1t-23 -2h-10
q-170 -23 -291.5 -145t-144.5 -293h-1q-4 -27 -5 -54q1 0 1 -15q0 -84 25.5 -162t73 -141t110.5 -110.5t141 -73.5t161 -26q8 0 17.5 0.5t17.5 1t15.5 1.5t11.5 1l4 1q134 18 243 100q2 3 3.5 7t1.5 8q0 10 -6.5 18t-15.5 8q-10 0 -17 -7q-92 -68 -203 -85q-38 -5 -72 -5
q-71 0 -140 23.5t-126 66.5t-101 100t-68 127.5t-24 145.5v21q6 120 68 221t166 159.5t225 58.5q120 0 222.5 -57.5t164.5 -155.5q72 -112 72 -246q0 -6 1 -13v-7q0 -4 -1 -13t-1.5 -15t-1 -12.5t-0.5 -10.5v-3q-6 -39 -18 -76.5t-30 -71.5v-1l-1 -6q0 -9 8 -16t18 -7
q15 0 21 15q41 80 53 168q4 27 4 54v0zM1023 286z" />
    <glyph glyph-name="uniE61B" unicode="&#xe61b;" horiz-adv-x="1025" 
d="M526.5 812q-101.5 0 -194 -39.5t-159 -106.5t-106 -159t-39.5 -194q0 -67 18 -132t50 -119.5t78 -100.5t100.5 -78t119.5 -50t132 -18q102 0 194 39.5t159 106t106.5 159t39.5 194t-39.5 193.5t-106.5 159t-159 106.5t-193.5 39.5zM526 -147q-93 0 -178.5 36.5t-147 98
t-98 147t-36.5 178.5q0 63 16.5 122.5t46 110t72 93t93 72.5t110.5 46.5t122 16.5q94 0 179.5 -36.5t147 -98t98 -147t36.5 -179.5q0 -75 -23.5 -145t-66 -126.5t-99 -99.5t-127 -66t-145.5 -23zM797 378v173v3q0 1 -0.5 2.5t-1.5 3t-2 2.5q-3 2 -5.5 3.5t-6.5 1.5h-512
q-7 0 -11.5 -5t-4.5 -11v-173v-2v-3q0 -41 28 -70v-216q0 -4 2 -7.5t6 -5.5t8 -2h457q3 0 5.5 0.5t4 2t3 3.5t2.5 4.5t1 4.5v217q13 14 20 31.5t7 37.5v5zM285 380v155h481l-1 -158v-2v-3q0 -28 -20 -48.5t-49 -20.5t-49.5 20.5t-20.5 48.5l1 5q0 6 -5 12q-5 5 -12 5
q-3 0 -6 -1.5t-5.5 -4t-3.5 -5.5t-1 -7l1 -3q0 -19 -9.5 -35t-25.5 -25.5t-35 -9.5q-29 0 -49 20.5t-20 49.5v4q0 6 -5 12q-4 4 -11.5 4t-12 -4.5t-3.5 -11.5v-2v-2q0 -9 -2 -16.5t-5.5 -14.5t-8 -13t-10.5 -10.5t-13 -8t-15 -5.5t-16 -2q-28 0 -48.5 20.5t-20.5 49.5v4v2v1
zM313 103v177q10 -4 20 -6.5t21 -2.5q56 0 86 47q30 -47 85 -47q26 0 49 13t36 34q14 -21 36.5 -34t49.5 -13q5 0 11 0.5t11 2.5l10 2q5 2 10 5v-178h-425z" />
  </font>
</defs>
</svg>
